<svg width="25" height="24" viewBox="0 0 25 24" fill="none" xmlns="http://www.w3.org/2000/svg">
<path d="M12.6666 2C7.14663 2 2.66663 6.48 2.66663 12C2.66663 17.52 7.14663 22 12.6666 22C18.1866 22 22.6666 17.52 22.6666 12C22.6666 6.48 18.1866 2 12.6666 2ZM11.6666 19.93C7.71663 19.44 4.66663 16.08 4.66663 12C4.66663 11.38 4.74663 10.79 4.87663 10.21L9.66663 15V16C9.66663 17.1 10.5666 18 11.6666 18V19.93ZM18.5666 17.39C18.3066 16.58 17.5666 16 16.6666 16H15.6666V13C15.6666 12.45 15.2166 12 14.6666 12H8.66663V10H10.6666C11.2166 10 11.6666 9.55 11.6666 9V7H13.6666C14.7666 7 15.6666 6.1 15.6666 5V4.59C18.5966 5.78 20.6666 8.65 20.6666 12C20.6666 14.08 19.8666 15.97 18.5666 17.39Z" fill="#A095C1"/>
</svg>
