<svg width="25" height="24" viewBox="0 0 25 24" fill="none" xmlns="http://www.w3.org/2000/svg">
<path d="M12.6667 2C7.14669 2 2.66669 6.48 2.66669 12C2.66669 17.52 7.14669 22 12.6667 22C18.1867 22 22.6667 17.52 22.6667 12C22.6667 6.48 18.1867 2 12.6667 2ZM11.6667 19.93C7.71669 19.44 4.66669 16.08 4.66669 12C4.66669 11.38 4.74669 10.79 4.87669 10.21L9.66669 15V16C9.66669 17.1 10.5667 18 11.6667 18V19.93ZM18.5667 17.39C18.3067 16.58 17.5667 16 16.6667 16H15.6667V13C15.6667 12.45 15.2167 12 14.6667 12H8.66669V10H10.6667C11.2167 10 11.6667 9.55 11.6667 9V7H13.6667C14.7667 7 15.6667 6.1 15.6667 5V4.59C18.5967 5.78 20.6667 8.65 20.6667 12C20.6667 14.08 19.8667 15.97 18.5667 17.39Z" fill="#A095C1"/>
</svg>
